<svg width="450" height="94" viewBox="0 0 450 94" fill="none" xmlns="http://www.w3.org/2000/svg">
<path d="M50.269 93.792C43.101 93.792 36.4877 92.64 30.429 90.336C24.3703 88.032 19.0797 84.7893 14.557 80.608C10.1197 76.3413 6.66367 71.392 4.189 65.76C1.71433 60.128 0.477 53.9413 0.477 47.2C0.477 40.4587 1.71433 34.272 4.189 28.64C6.66367 23.008 10.1197 18.1013 14.557 13.92C19.0797 9.65333 24.3703 6.368 30.429 4.064C36.4877 1.75999 43.101 0.607994 50.269 0.607994C57.5223 0.607994 64.1357 1.75999 70.109 4.064C76.1677 6.368 81.4157 9.65333 85.853 13.92C90.2903 18.1013 93.7463 23.008 96.221 28.64C98.781 34.272 100.061 40.4587 100.061 47.2C100.061 53.9413 98.781 60.1707 96.221 65.888C93.7463 71.52 90.2903 76.4267 85.853 80.608C81.4157 84.7893 76.1677 88.032 70.109 90.336C64.1357 92.64 57.5223 93.792 50.269 93.792ZM50.269 72.8C53.6823 72.8 56.8397 72.2027 59.741 71.008C62.7277 69.8133 65.2877 68.1067 67.421 65.888C69.6397 63.584 71.3463 60.8533 72.541 57.696C73.821 54.5387 74.461 51.04 74.461 47.2C74.461 43.2747 73.821 39.776 72.541 36.704C71.3463 33.5467 69.6397 30.8587 67.421 28.64C65.2877 26.336 62.7277 24.5867 59.741 23.392C56.8397 22.1973 53.6823 21.6 50.269 21.6C46.8557 21.6 43.6557 22.1973 40.669 23.392C37.7677 24.5867 35.2077 26.336 32.989 28.64C30.8557 30.8587 29.149 33.5467 27.869 36.704C26.6743 39.776 26.077 43.2747 26.077 47.2C26.077 51.04 26.6743 54.5387 27.869 57.696C29.149 60.8533 30.8557 63.584 32.989 65.888C35.2077 68.1067 37.7677 69.8133 40.669 71.008C43.6557 72.2027 46.8557 72.8 50.269 72.8ZM112.183 92V22.624H135.351V42.848L131.895 37.088C133.943 31.8827 137.271 28 141.879 25.44C146.487 22.7947 152.076 21.472 158.647 21.472V43.36C157.538 43.1893 156.556 43.104 155.703 43.104C154.935 43.0187 154.082 42.976 153.143 42.976C148.194 42.976 144.183 44.3413 141.111 47.072C138.039 49.7173 136.503 54.0693 136.503 60.128V92H112.183ZM204.41 93.152C196.218 93.152 189.05 91.616 182.906 88.544C176.847 85.3867 172.111 81.12 168.698 75.744C165.37 70.2827 163.706 64.096 163.706 57.184C163.706 50.272 165.327 44.128 168.57 38.752C171.898 33.2907 176.463 29.0667 182.266 26.08C188.069 23.008 194.597 21.472 201.85 21.472C208.677 21.472 214.906 22.88 220.538 25.696C226.17 28.4267 230.65 32.48 233.978 37.856C237.306 43.232 238.97 49.76 238.97 57.44C238.97 58.2933 238.927 59.2747 238.842 60.384C238.757 61.4933 238.671 62.5173 238.586 63.456H183.674V50.656H225.658L216.442 54.24C216.527 51.0827 215.93 48.352 214.65 46.048C213.455 43.744 211.749 41.952 209.53 40.672C207.397 39.392 204.879 38.752 201.978 38.752C199.077 38.752 196.517 39.392 194.298 40.672C192.165 41.952 190.501 43.7867 189.306 46.176C188.111 48.48 187.514 51.2107 187.514 54.368V58.08C187.514 61.4933 188.197 64.4373 189.562 66.912C191.013 69.3867 193.061 71.3067 195.706 72.672C198.351 73.952 201.509 74.592 205.178 74.592C208.591 74.592 211.493 74.1227 213.882 73.184C216.357 72.16 218.789 70.624 221.178 68.576L233.978 81.888C230.65 85.5573 226.554 88.3733 221.69 90.336C216.826 92.2133 211.066 93.152 204.41 93.152ZM275.399 93.152C269.511 93.152 263.751 92.4693 258.119 91.104C252.572 89.7387 248.092 88.032 244.679 85.984L251.975 69.344C255.218 71.3067 259.015 72.8853 263.367 74.08C267.719 75.1893 271.986 75.744 276.167 75.744C280.263 75.744 283.079 75.3173 284.615 74.464C286.236 73.6107 287.047 72.4587 287.047 71.008C287.047 69.6427 286.279 68.6613 284.743 68.064C283.292 67.3813 281.33 66.8693 278.855 66.528C276.466 66.1867 273.82 65.8027 270.919 65.376C268.018 64.9493 265.074 64.3947 262.087 63.712C259.186 62.944 256.498 61.8347 254.023 60.384C251.634 58.848 249.714 56.8 248.263 54.24C246.812 51.68 246.087 48.4373 246.087 44.512C246.087 40.0747 247.367 36.1493 249.927 32.736C252.572 29.2373 256.412 26.5067 261.447 24.544C266.482 22.496 272.626 21.472 279.879 21.472C284.743 21.472 289.65 21.984 294.599 23.008C299.634 23.9467 303.858 25.3973 307.271 27.36L299.975 43.872C296.562 41.9093 293.148 40.5867 289.735 39.904C286.322 39.136 283.079 38.752 280.007 38.752C275.911 38.752 273.01 39.2213 271.303 40.16C269.682 41.0987 268.871 42.2507 268.871 43.616C268.871 44.9813 269.596 46.048 271.047 46.816C272.498 47.4987 274.418 48.0533 276.807 48.48C279.282 48.8213 281.97 49.2053 284.871 49.632C287.772 49.9733 290.674 50.528 293.575 51.296C296.562 52.064 299.25 53.216 301.639 54.752C304.114 56.2027 306.076 58.208 307.527 60.768C308.978 63.2427 309.703 66.4427 309.703 70.368C309.703 74.6347 308.38 78.4747 305.735 81.888C303.175 85.3013 299.335 88.032 294.215 90.08C289.18 92.128 282.908 93.152 275.399 93.152ZM351.159 93.152C342.284 93.152 335.372 90.976 330.423 86.624C325.474 82.1867 322.999 75.5307 322.999 66.656V7.13599H347.319V66.4C347.319 68.8747 348.002 70.8373 349.367 72.288C350.732 73.6533 352.482 74.336 354.615 74.336C357.516 74.336 359.991 73.6107 362.039 72.16L368.055 89.184C366.007 90.5493 363.49 91.5307 360.503 92.128C357.516 92.8107 354.402 93.152 351.159 93.152ZM312.887 43.36V25.184H363.191V43.36H312.887ZM410.249 93.152C402.654 93.152 395.913 91.616 390.025 88.544C384.137 85.472 379.486 81.248 376.073 75.872C372.745 70.4107 371.081 64.1813 371.081 57.184C371.081 50.1867 372.745 44 376.073 38.624C379.486 33.248 384.137 29.0667 390.025 26.08C395.913 23.008 402.654 21.472 410.249 21.472C417.844 21.472 424.585 23.008 430.473 26.08C436.446 29.0667 441.097 33.248 444.425 38.624C447.753 44 449.417 50.1867 449.417 57.184C449.417 64.1813 447.753 70.4107 444.425 75.872C441.097 81.248 436.446 85.472 430.473 88.544C424.585 91.616 417.844 93.152 410.249 93.152ZM410.249 73.824C413.065 73.824 415.54 73.184 417.673 71.904C419.892 70.624 421.641 68.7467 422.921 66.272C424.201 63.712 424.841 60.6827 424.841 57.184C424.841 53.6853 424.201 50.7413 422.921 48.352C421.641 45.8773 419.892 44 417.673 42.72C415.54 41.44 413.065 40.8 410.249 40.8C407.518 40.8 405.044 41.44 402.825 42.72C400.692 44 398.942 45.8773 397.577 48.352C396.297 50.7413 395.657 53.6853 395.657 57.184C395.657 60.6827 396.297 63.712 397.577 66.272C398.942 68.7467 400.692 70.624 402.825 71.904C405.044 73.184 407.518 73.824 410.249 73.824Z" fill="black"/>
</svg>
