<svg width="296" height="71" viewBox="0 0 296 71" fill="none" xmlns="http://www.w3.org/2000/svg">
<mask id="mask0_4467_2780" style="mask-type:luminance" maskUnits="userSpaceOnUse" x="0" y="0" width="71" height="71">
<path d="M0 0H70.67V70.67H0V0Z" fill="white"/>
</mask>
<g mask="url(#mask0_4467_2780)">
<mask id="mask1_4467_2780" style="mask-type:luminance" maskUnits="userSpaceOnUse" x="-11" y="-11" width="93" height="92">
<path d="M18.7025 -10.6577L81.3226 18.5449L52.5192 80.3023L-10.0959 51.1046L18.7025 -10.6577Z" fill="white"/>
</mask>
<g mask="url(#mask1_4467_2780)">
<mask id="mask2_4467_2780" style="mask-type:luminance" maskUnits="userSpaceOnUse" x="-11" y="-11" width="93" height="92">
<path d="M18.7025 -10.6577L81.3226 18.5449L52.5192 80.3023L-10.0959 51.1046L18.7025 -10.6577Z" fill="white"/>
</mask>
<g mask="url(#mask2_4467_2780)">
<mask id="mask3_4467_2780" style="mask-type:luminance" maskUnits="userSpaceOnUse" x="-10" y="-11" width="92" height="92">
<path d="M18.7522 -10.6329L81.4511 18.6042L52.7808 80.0806L-9.91809 50.8435L18.7522 -10.6329Z" fill="white"/>
</mask>
<g mask="url(#mask3_4467_2780)">
<mask id="mask4_4467_2780" style="mask-type:luminance" maskUnits="userSpaceOnUse" x="-10" y="-11" width="92" height="92">
<path d="M18.7516 -10.6329L81.3766 18.5697L52.7113 80.0363L-9.9137 50.8336L18.7516 -10.6329Z" fill="white"/>
</mask>
<g mask="url(#mask4_4467_2780)">
<path fill-rule="evenodd" clip-rule="evenodd" d="M66.6476 50.1285C74.4313 32.5448 66.6081 11.6829 49.1822 3.55412C33.9499 -3.54936 16.4155 1.40484 7.03946 14.4879C9.43029 11.8407 13.1422 8.73508 18.333 7.0541C28.5027 3.74637 34.2111 5.54073 34.2111 5.54073C14.0986 6.51185 0.562029 24.7265 0.774 39.4659C1.66132 46.4215 4.59933 53.0468 9.22325 58.4052C10.6725 59.5636 12.2253 60.3672 13.2162 58.1439L13.226 58.1489C14 53.9144 15.1732 45.6722 14.5669 44.1489C13.7683 42.1673 10.2437 41.3933 9.70634 39.1997C9.17888 36.9912 13.9014 14.4879 13.9014 14.4879C13.9014 14.4879 14.5521 14.197 14.907 14.5717C15.2472 14.971 12.0676 35.5124 12.4077 36.168C12.7429 36.8236 12.7627 36.5427 13.0584 36.6955C13.3148 36.7349 13.65 36.8434 14.1084 36.03C14.5767 35.2018 16.588 15.5822 16.7063 15.2963C16.8147 14.9956 17.1598 14.0787 17.7662 14.5076C18.3774 14.9217 16.4007 35.3941 16.5781 36.0053C16.7704 36.6265 17.0464 36.6265 17.3471 36.7349C17.6232 36.6659 17.8007 36.7349 18.057 36.1828C18.3232 35.6455 19.5753 15.0794 20.2309 14.7738C20.8915 14.4534 21.0985 15.4195 21.1626 15.735C21.2218 16.0555 20.157 35.7786 20.4873 36.656C20.8028 37.5286 21.1281 37.4842 21.3795 37.5039C21.7246 37.4103 21.7147 37.6764 22.1633 37.0997C22.602 36.4983 22.6464 15.6907 23.0408 15.3604C23.445 15.0498 24.0563 15.4639 24.0563 15.4639C24.0563 15.4639 25.1605 38.4948 24.3077 40.5602C23.4549 42.6356 19.7133 42.9659 18.6436 44.7799C17.8007 46.1701 17.5739 55.6939 17.6577 60.6827C17.7218 61.6439 17.9485 63.0193 18.7028 63.8524C19.9598 65.2622 20.8866 64.9221 21.6408 63.3446L30.1492 45.5785C30.3661 44.9426 30.5386 44.3018 30.5288 43.7644C30.5041 43.1926 30.3316 42.675 30.1245 42.2905C27.4922 39.7962 26.6196 35.7046 29.0203 30.2821C32.0766 23.4153 39.2393 16.9822 43.6611 19.0477C48.0878 21.1082 48.0779 30.8786 45.0364 37.7504C42.7787 42.8722 39.4611 44.9426 36.1041 44.8391C35.6407 44.9722 34.9801 45.2137 34.4527 45.6278C34.0879 45.9236 33.6787 46.5546 33.3485 47.2003L25.9246 64.9073L25.9393 64.9122C25.9393 64.9122 25.6879 66.9037 26.6492 67.2882C27.1372 67.4805 27.7288 67.0368 28.1921 66.5587L28.1774 66.5537C28.1774 66.5537 28.3548 66.3467 28.6851 65.9868C28.8576 65.7601 28.9612 65.6023 28.9612 65.6023L28.9957 65.6319C33.1661 60.9242 51.9674 39.668 53.6434 37.5236C55.5413 35.1131 60.111 29.7202 61.4567 31.623C62.8074 33.5208 59.8941 41.6595 54.8216 49.675C49.7343 57.6904 45.3716 61.8115 42.3202 62.9749C39.2639 64.1185 37.5238 61.5749 35.3301 63.7636C33.8463 65.2573 32.4611 67.0566 31.7118 68.072C31.6083 68.4713 31.4654 69.4375 32.2738 69.9748C32.6879 70.2608 33.2499 70.3988 33.7625 70.4727C34.1914 70.4826 34.6301 70.5072 35.0639 70.5023C48.2801 70.6699 60.9046 63.1031 66.6476 50.1285Z" fill="#FD484D"/>
</g>
</g>
</g>
</g>
</g>
<path d="M85.1827 23.3712C85.1827 33.1308 93.33 40.6514 103.687 40.6514C114.044 40.6514 122.192 33.1308 122.192 23.3712C122.192 13.6116 114.044 6 103.687 6C93.33 6 85.1827 13.6116 85.1827 23.3712ZM91.8068 23.3712C91.8068 17.0838 97.0416 12.2166 103.687 12.2166C110.333 12.2166 115.567 17.0838 115.567 23.3712C115.567 29.608 110.354 34.4095 103.687 34.4095C97.0202 34.4095 91.8068 29.608 91.8068 23.3712Z" fill="white"/>
<path d="M151.284 30.1842C155.017 27.93 157.318 24.1243 157.318 19.5401C157.318 11.974 151.262 6.5105 142.9 6.5105H134.565C134.002 6.5105 132.473 6.5105 131.111 6.5105H129.937C129.33 6.5105 128.88 6.90472 128.88 7.46068V39.1705C128.88 39.7669 129.33 40.1409 129.937 40.1409H134.447C135.08 40.1409 135.525 39.7669 135.525 39.1705V32.3524H142.9C143.748 32.3524 144.547 32.312 145.346 32.2008L149.031 39.3221C149.288 39.7871 149.782 40.1409 150.227 40.1409H155.392C156.143 40.1409 156.427 39.6355 156.073 38.9936L151.284 30.1842ZM142.477 27.1315H135.525V11.974H142.477C147.175 11.974 150.699 15.138 150.699 19.4997C150.699 23.9878 147.272 27.1315 142.477 27.1315Z" fill="white"/>
<path d="M190.661 34.1922H171.475V27.4398H186.391C187.164 27.4398 187.636 27.0456 187.636 26.4441V22.7495C187.636 22.0874 187.164 21.7084 186.391 21.7084H171.475V12.439H190.521C191.203 12.439 191.605 12.065 191.605 11.4231V7.4809C191.605 6.88451 191.203 6.5105 190.521 6.5105H165.886C165.205 6.5105 164.83 6.83902 164.83 7.50617V39.1452C164.83 39.7669 165.205 40.1207 165.886 40.1207H191.015C191.675 40.1207 192.093 39.7467 192.093 39.1452V35.4304C192.093 34.6774 191.53 34.1922 190.661 34.1922Z" fill="white"/>
<path d="M210.925 40.6514C218.439 40.6514 223.722 36.6889 223.722 30.4268C223.722 24.478 218.439 22.421 212.711 20.6722C208.533 19.343 205.175 18.0592 205.175 15.5372C205.175 13.4347 207.149 11.9538 210.549 11.9538C212.62 11.9538 214.964 12.7726 216.562 14.1877C217.313 14.6527 217.946 14.8296 218.606 14.0968L221.073 11.4433C221.518 10.9329 221.497 10.3163 221.003 9.80579C218.933 7.52636 214.894 6 210.855 6C203.389 6 198.669 9.78557 198.669 15.4715C198.669 20.9148 202.617 23.3459 209.353 25.4282C214.17 26.9748 216.868 28.1271 216.868 30.5178C216.868 33.1055 214.685 34.6773 210.667 34.6773C207.685 34.6773 204.355 33.0398 202.263 30.917C201.7 30.4268 201.11 30.3409 200.691 30.7149L197.634 33.5907C197.119 34.0557 197.071 34.6116 197.425 35.0311C200.01 38.3517 205.524 40.6514 210.925 40.6514Z" fill="white"/>
<path d="M227.693 10.9784C227.693 11.6203 228.095 11.974 228.728 11.974H237.605V39.1705C237.605 39.7871 237.98 40.1409 238.64 40.1409H243.167C243.848 40.1409 244.229 39.7871 244.229 39.1705V11.974H253.175C253.808 11.974 254.184 11.6 254.184 10.9784V7.4809C254.184 6.88451 253.808 6.5105 253.175 6.5105H228.728C228.069 6.5105 227.693 6.86429 227.693 7.4809V10.9784Z" fill="white"/>
<path d="M258.01 23.3712C258.01 33.1308 266.158 40.6514 276.515 40.6514C286.872 40.6514 295.019 33.1308 295.019 23.3712C295.019 13.6116 286.872 6 276.515 6C266.158 6 258.01 13.6116 258.01 23.3712ZM264.635 23.3712C264.635 17.0838 269.869 12.2166 276.515 12.2166C283.16 12.2166 288.395 17.0838 288.395 23.3712C288.395 29.608 283.182 34.4095 276.515 34.4095C269.848 34.4095 264.635 29.608 264.635 23.3712Z" fill="white"/>
<path d="M97.6809 60.643H98.8879V65.182C98.3326 65.6694 97.6753 66.0434 96.9159 66.304C96.1566 66.5647 95.3576 66.695 94.5189 66.695C93.3289 66.695 92.2579 66.4344 91.3059 65.913C90.3539 65.3917 89.6059 64.672 89.0619 63.754C88.5179 62.8247 88.2459 61.7877 88.2459 60.643C88.2459 59.4984 88.5179 58.467 89.0619 57.549C89.6059 56.6197 90.3539 55.8944 91.3059 55.373C92.2579 54.8517 93.3346 54.591 94.5359 54.591C95.4426 54.591 96.2756 54.7384 97.0349 55.033C97.7943 55.3164 98.4346 55.7414 98.9559 56.308L98.1739 57.107C97.2333 56.1777 96.0376 55.713 94.5869 55.713C93.6236 55.713 92.7509 55.9284 91.9689 56.359C91.1983 56.7784 90.5919 57.3677 90.1499 58.127C89.7079 58.875 89.4869 59.7137 89.4869 60.643C89.4869 61.5724 89.7079 62.411 90.1499 63.159C90.5919 63.907 91.1983 64.4964 91.9689 64.927C92.7396 65.3577 93.6066 65.573 94.5699 65.573C95.7939 65.573 96.8309 65.267 97.6809 64.655V60.643ZM109.979 62.496H102.499C102.567 63.4254 102.924 64.179 103.57 64.757C104.216 65.3237 105.032 65.607 106.018 65.607C106.574 65.607 107.084 65.5107 107.548 65.318C108.013 65.114 108.415 64.8194 108.755 64.434L109.435 65.216C109.039 65.692 108.54 66.0547 107.939 66.304C107.35 66.5534 106.698 66.678 105.984 66.678C105.066 66.678 104.25 66.4854 103.536 66.1C102.834 65.7034 102.284 65.1594 101.887 64.468C101.491 63.7767 101.292 62.9947 101.292 62.122C101.292 61.2494 101.479 60.4674 101.853 59.776C102.239 59.0847 102.76 58.5464 103.417 58.161C104.086 57.7757 104.834 57.583 105.661 57.583C106.489 57.583 107.231 57.7757 107.888 58.161C108.546 58.5464 109.061 59.0847 109.435 59.776C109.809 60.456 109.996 61.238 109.996 62.122L109.979 62.496ZM105.661 58.62C104.8 58.62 104.075 58.8977 103.485 59.453C102.907 59.997 102.579 60.711 102.499 61.595H108.84C108.761 60.711 108.427 59.997 107.837 59.453C107.259 58.8977 106.534 58.62 105.661 58.62ZM114.85 66.678C114.125 66.678 113.428 66.576 112.759 66.372C112.102 66.1567 111.586 65.8904 111.212 65.573L111.756 64.621C112.13 64.9157 112.6 65.1594 113.167 65.352C113.734 65.5334 114.323 65.624 114.935 65.624C115.751 65.624 116.352 65.4994 116.737 65.25C117.134 64.9894 117.332 64.6267 117.332 64.162C117.332 63.8334 117.224 63.5784 117.009 63.397C116.794 63.2044 116.522 63.0627 116.193 62.972C115.864 62.87 115.428 62.7737 114.884 62.683C114.159 62.547 113.575 62.411 113.133 62.275C112.691 62.1277 112.311 61.884 111.994 61.544C111.688 61.204 111.535 60.7337 111.535 60.133C111.535 59.385 111.847 58.773 112.47 58.297C113.093 57.821 113.96 57.583 115.071 57.583C115.649 57.583 116.227 57.6624 116.805 57.821C117.383 57.9684 117.859 58.1667 118.233 58.416L117.706 59.385C116.969 58.875 116.091 58.62 115.071 58.62C114.3 58.62 113.717 58.756 113.32 59.028C112.935 59.3 112.742 59.657 112.742 60.099C112.742 60.439 112.85 60.711 113.065 60.915C113.292 61.119 113.569 61.272 113.898 61.374C114.227 61.4647 114.68 61.561 115.258 61.663C115.972 61.799 116.544 61.935 116.975 62.071C117.406 62.207 117.774 62.4394 118.08 62.768C118.386 63.0967 118.539 63.55 118.539 64.128C118.539 64.91 118.21 65.5334 117.553 65.998C116.907 66.4514 116.006 66.678 114.85 66.678ZM125.48 66.049C125.253 66.253 124.97 66.4117 124.63 66.525C124.301 66.627 123.955 66.678 123.593 66.678C122.754 66.678 122.108 66.4514 121.655 65.998C121.201 65.5447 120.975 64.9044 120.975 64.077V58.671H119.377V57.651H120.975V55.696H122.182V57.651H124.902V58.671H122.182V64.009C122.182 64.5417 122.312 64.9497 122.573 65.233C122.845 65.505 123.23 65.641 123.729 65.641C123.978 65.641 124.216 65.6014 124.443 65.522C124.681 65.4427 124.885 65.3294 125.055 65.182L125.48 66.049ZM127.677 57.651H128.884V66.593H127.677V57.651ZM128.289 55.696C128.039 55.696 127.83 55.611 127.66 55.441C127.49 55.271 127.405 55.067 127.405 54.829C127.405 54.6024 127.49 54.404 127.66 54.234C127.83 54.064 128.039 53.979 128.289 53.979C128.538 53.979 128.748 54.064 128.918 54.234C129.088 54.3927 129.173 54.5854 129.173 54.812C129.173 55.0614 129.088 55.271 128.918 55.441C128.748 55.611 128.538 55.696 128.289 55.696ZM135.897 66.678C135.036 66.678 134.26 66.4854 133.568 66.1C132.877 65.7034 132.333 65.1594 131.936 64.468C131.54 63.7767 131.341 62.9947 131.341 62.122C131.341 61.2494 131.54 60.4674 131.936 59.776C132.333 59.0847 132.877 58.5464 133.568 58.161C134.26 57.7757 135.036 57.583 135.897 57.583C136.759 57.583 137.535 57.7757 138.226 58.161C138.918 58.5464 139.456 59.0847 139.841 59.776C140.238 60.4674 140.436 61.2494 140.436 62.122C140.436 62.9947 140.238 63.7767 139.841 64.468C139.456 65.1594 138.918 65.7034 138.226 66.1C137.535 66.4854 136.759 66.678 135.897 66.678ZM135.897 65.607C136.532 65.607 137.099 65.4654 137.597 65.182C138.107 64.8874 138.504 64.4737 138.787 63.941C139.071 63.4084 139.212 62.802 139.212 62.122C139.212 61.442 139.071 60.8357 138.787 60.303C138.504 59.7704 138.107 59.3624 137.597 59.079C137.099 58.7844 136.532 58.637 135.897 58.637C135.263 58.637 134.69 58.7844 134.18 59.079C133.682 59.3624 133.285 59.7704 132.99 60.303C132.707 60.8357 132.565 61.442 132.565 62.122C132.565 62.802 132.707 63.4084 132.99 63.941C133.285 64.4737 133.682 64.8874 134.18 65.182C134.69 65.4654 135.263 65.607 135.897 65.607ZM147.456 57.583C148.578 57.583 149.468 57.9117 150.125 58.569C150.794 59.215 151.128 60.1614 151.128 61.408V66.593H149.921V61.527C149.921 60.5977 149.689 59.8894 149.224 59.402C148.76 58.9147 148.097 58.671 147.235 58.671C146.272 58.671 145.507 58.96 144.94 59.538C144.385 60.1047 144.107 60.8924 144.107 61.901V66.593H142.9V57.651H144.056V59.3C144.385 58.756 144.838 58.3367 145.416 58.042C146.006 57.736 146.686 57.583 147.456 57.583ZM167.015 53.979V66.593H165.859V64.825C165.496 65.4257 165.014 65.8847 164.414 66.202C163.824 66.5194 163.156 66.678 162.408 66.678C161.569 66.678 160.81 66.4854 160.13 66.1C159.45 65.7147 158.917 65.1764 158.532 64.485C158.146 63.7937 157.954 63.006 157.954 62.122C157.954 61.238 158.146 60.4504 158.532 59.759C158.917 59.0677 159.45 58.535 160.13 58.161C160.81 57.7757 161.569 57.583 162.408 57.583C163.133 57.583 163.785 57.736 164.363 58.042C164.952 58.3367 165.434 58.773 165.808 59.351V53.979H167.015ZM162.51 65.607C163.133 65.607 163.694 65.4654 164.193 65.182C164.703 64.8874 165.099 64.4737 165.383 63.941C165.677 63.4084 165.825 62.802 165.825 62.122C165.825 61.442 165.677 60.8357 165.383 60.303C165.099 59.7704 164.703 59.3624 164.193 59.079C163.694 58.7844 163.133 58.637 162.51 58.637C161.875 58.637 161.303 58.7844 160.793 59.079C160.294 59.3624 159.897 59.7704 159.603 60.303C159.319 60.8357 159.178 61.442 159.178 62.122C159.178 62.802 159.319 63.4084 159.603 63.941C159.897 64.4737 160.294 64.8874 160.793 65.182C161.303 65.4654 161.875 65.607 162.51 65.607ZM178.162 62.496H170.682C170.75 63.4254 171.107 64.179 171.753 64.757C172.399 65.3237 173.215 65.607 174.201 65.607C174.756 65.607 175.266 65.5107 175.731 65.318C176.196 65.114 176.598 64.8194 176.938 64.434L177.618 65.216C177.221 65.692 176.723 66.0547 176.122 66.304C175.533 66.5534 174.881 66.678 174.167 66.678C173.249 66.678 172.433 66.4854 171.719 66.1C171.016 65.7034 170.467 65.1594 170.07 64.468C169.673 63.7767 169.475 62.9947 169.475 62.122C169.475 61.2494 169.662 60.4674 170.036 59.776C170.421 59.0847 170.943 58.5464 171.6 58.161C172.269 57.7757 173.017 57.583 173.844 57.583C174.671 57.583 175.414 57.7757 176.071 58.161C176.728 58.5464 177.244 59.0847 177.618 59.776C177.992 60.456 178.179 61.238 178.179 62.122L178.162 62.496ZM173.844 58.62C172.983 58.62 172.257 58.8977 171.668 59.453C171.09 59.997 170.761 60.711 170.682 61.595H177.023C176.944 60.711 176.609 59.997 176.02 59.453C175.442 58.8977 174.717 58.62 173.844 58.62ZM183.033 66.678C182.307 66.678 181.61 66.576 180.942 66.372C180.284 66.1567 179.769 65.8904 179.395 65.573L179.939 64.621C180.313 64.9157 180.783 65.1594 181.35 65.352C181.916 65.5334 182.506 65.624 183.118 65.624C183.934 65.624 184.534 65.4994 184.92 65.25C185.316 64.9894 185.515 64.6267 185.515 64.162C185.515 63.8334 185.407 63.5784 185.192 63.397C184.976 63.2044 184.704 63.0627 184.376 62.972C184.047 62.87 183.611 62.7737 183.067 62.683C182.341 62.547 181.758 62.411 181.316 62.275C180.874 62.1277 180.494 61.884 180.177 61.544C179.871 61.204 179.718 60.7337 179.718 60.133C179.718 59.385 180.029 58.773 180.653 58.297C181.276 57.821 182.143 57.583 183.254 57.583C183.832 57.583 184.41 57.6624 184.988 57.821C185.566 57.9684 186.042 58.1667 186.416 58.416L185.889 59.385C185.152 58.875 184.274 58.62 183.254 58.62C182.483 58.62 181.899 58.756 181.503 59.028C181.117 59.3 180.925 59.657 180.925 60.099C180.925 60.439 181.032 60.711 181.248 60.915C181.474 61.119 181.752 61.272 182.081 61.374C182.409 61.4647 182.863 61.561 183.441 61.663C184.155 61.799 184.727 61.935 185.158 62.071C185.588 62.207 185.957 62.4394 186.263 62.768C186.569 63.0967 186.722 63.55 186.722 64.128C186.722 64.91 186.393 65.5334 185.736 65.998C185.09 66.4514 184.189 66.678 183.033 66.678ZM194.558 59.402C194.842 58.8014 195.261 58.348 195.816 58.042C196.383 57.736 197.08 57.583 197.907 57.583V58.756L197.618 58.739C196.678 58.739 195.941 59.028 195.408 59.606C194.876 60.184 194.609 60.9944 194.609 62.037V66.593H193.402V57.651H194.558V59.402ZM207.796 62.496H200.316C200.384 63.4254 200.741 64.179 201.387 64.757C202.033 65.3237 202.849 65.607 203.835 65.607C204.39 65.607 204.9 65.5107 205.365 65.318C205.829 65.114 206.232 64.8194 206.572 64.434L207.252 65.216C206.855 65.692 206.356 66.0547 205.756 66.304C205.166 66.5534 204.515 66.678 203.801 66.678C202.883 66.678 202.067 66.4854 201.353 66.1C200.65 65.7034 200.1 65.1594 199.704 64.468C199.307 63.7767 199.109 62.9947 199.109 62.122C199.109 61.2494 199.296 60.4674 199.67 59.776C200.055 59.0847 200.576 58.5464 201.234 58.161C201.902 57.7757 202.65 57.583 203.478 57.583C204.305 57.583 205.047 57.7757 205.705 58.161C206.362 58.5464 206.878 59.0847 207.252 59.776C207.626 60.456 207.813 61.238 207.813 62.122L207.796 62.496ZM203.478 58.62C202.616 58.62 201.891 58.8977 201.302 59.453C200.724 59.997 200.395 60.711 200.316 61.595H206.657C206.577 60.711 206.243 59.997 205.654 59.453C205.076 58.8977 204.35 58.62 203.478 58.62ZM204.702 54.149H206.317L203.563 56.257H202.373L204.702 54.149ZM212.667 66.678C211.941 66.678 211.244 66.576 210.576 66.372C209.918 66.1567 209.403 65.8904 209.029 65.573L209.573 64.621C209.947 64.9157 210.417 65.1594 210.984 65.352C211.55 65.5334 212.14 65.624 212.752 65.624C213.568 65.624 214.168 65.4994 214.554 65.25C214.95 64.9894 215.149 64.6267 215.149 64.162C215.149 63.8334 215.041 63.5784 214.826 63.397C214.61 63.2044 214.338 63.0627 214.01 62.972C213.681 62.87 213.245 62.7737 212.701 62.683C211.975 62.547 211.392 62.411 210.95 62.275C210.508 62.1277 210.128 61.884 209.811 61.544C209.505 61.204 209.352 60.7337 209.352 60.133C209.352 59.385 209.663 58.773 210.287 58.297C210.91 57.821 211.777 57.583 212.888 57.583C213.466 57.583 214.044 57.6624 214.622 57.821C215.2 57.9684 215.676 58.1667 216.05 58.416L215.523 59.385C214.786 58.875 213.908 58.62 212.888 58.62C212.117 58.62 211.533 58.756 211.137 59.028C210.751 59.3 210.559 59.657 210.559 60.099C210.559 60.439 210.666 60.711 210.882 60.915C211.108 61.119 211.386 61.272 211.715 61.374C212.043 61.4647 212.497 61.561 213.075 61.663C213.789 61.799 214.361 61.935 214.792 62.071C215.222 62.207 215.591 62.4394 215.897 62.768C216.203 63.0967 216.356 63.55 216.356 64.128C216.356 64.91 216.027 65.5334 215.37 65.998C214.724 66.4514 213.823 66.678 212.667 66.678ZM226.373 62.496H218.893C218.961 63.4254 219.318 64.179 219.964 64.757C220.61 65.3237 221.426 65.607 222.412 65.607C222.967 65.607 223.477 65.5107 223.942 65.318C224.407 65.114 224.809 64.8194 225.149 64.434L225.829 65.216C225.432 65.692 224.934 66.0547 224.333 66.304C223.744 66.5534 223.092 66.678 222.378 66.678C221.46 66.678 220.644 66.4854 219.93 66.1C219.227 65.7034 218.678 65.1594 218.281 64.468C217.884 63.7767 217.686 62.9947 217.686 62.122C217.686 61.2494 217.873 60.4674 218.247 59.776C218.632 59.0847 219.154 58.5464 219.811 58.161C220.48 57.7757 221.228 57.583 222.055 57.583C222.882 57.583 223.625 57.7757 224.282 58.161C224.939 58.5464 225.455 59.0847 225.829 59.776C226.203 60.456 226.39 61.238 226.39 62.122L226.373 62.496ZM222.055 58.62C221.194 58.62 220.468 58.8977 219.879 59.453C219.301 59.997 218.972 60.711 218.893 61.595H225.234C225.155 60.711 224.82 59.997 224.231 59.453C223.653 58.8977 222.928 58.62 222.055 58.62ZM230.003 59.402C230.286 58.8014 230.705 58.348 231.261 58.042C231.827 57.736 232.524 57.583 233.352 57.583V58.756L233.063 58.739C232.122 58.739 231.385 59.028 230.853 59.606C230.32 60.184 230.054 60.9944 230.054 62.037V66.593H228.847V57.651H230.003V59.402ZM243.433 57.651L239.455 66.593H238.214L234.253 57.651H235.511L238.86 65.267L242.243 57.651H243.433ZM247.995 57.583C249.163 57.583 250.058 57.8777 250.681 58.467C251.305 59.045 251.616 59.9064 251.616 61.051V66.593H250.46V65.199C250.188 65.6637 249.786 66.0264 249.253 66.287C248.732 66.5477 248.109 66.678 247.383 66.678C246.386 66.678 245.593 66.44 245.003 65.964C244.414 65.488 244.119 64.859 244.119 64.077C244.119 63.3177 244.391 62.7057 244.935 62.241C245.491 61.7764 246.369 61.544 247.57 61.544H250.409V61C250.409 60.2294 250.194 59.6457 249.763 59.249C249.333 58.841 248.704 58.637 247.876 58.637C247.31 58.637 246.766 58.7334 246.244 58.926C245.723 59.1074 245.275 59.3624 244.901 59.691L244.357 58.79C244.811 58.4047 245.355 58.11 245.989 57.906C246.624 57.6907 247.293 57.583 247.995 57.583ZM247.57 65.726C248.25 65.726 248.834 65.573 249.321 65.267C249.809 64.9497 250.171 64.4964 250.409 63.907V62.445H247.604C246.074 62.445 245.309 62.9777 245.309 64.043C245.309 64.5644 245.508 64.978 245.904 65.284C246.301 65.5787 246.856 65.726 247.57 65.726ZM259.604 66.049C259.377 66.253 259.094 66.4117 258.754 66.525C258.425 66.627 258.079 66.678 257.717 66.678C256.878 66.678 256.232 66.4514 255.779 65.998C255.325 65.5447 255.099 64.9044 255.099 64.077V58.671H253.501V57.651H255.099V55.696H256.306V57.651H259.026V58.671H256.306V64.009C256.306 64.5417 256.436 64.9497 256.697 65.233C256.969 65.505 257.354 65.641 257.853 65.641C258.102 65.641 258.34 65.6014 258.567 65.522C258.805 65.4427 259.009 65.3294 259.179 65.182L259.604 66.049ZM261.801 57.651H263.008V66.593H261.801V57.651ZM262.413 55.696C262.163 55.696 261.954 55.611 261.784 55.441C261.614 55.271 261.529 55.067 261.529 54.829C261.529 54.6024 261.614 54.404 261.784 54.234C261.954 54.064 262.163 53.979 262.413 53.979C262.662 53.979 262.872 54.064 263.042 54.234C263.212 54.3927 263.297 54.5854 263.297 54.812C263.297 55.0614 263.212 55.271 263.042 55.441C262.872 55.611 262.662 55.696 262.413 55.696ZM270.021 66.678C269.16 66.678 268.384 66.4854 267.692 66.1C267.001 65.7034 266.457 65.1594 266.06 64.468C265.664 63.7767 265.465 62.9947 265.465 62.122C265.465 61.2494 265.664 60.4674 266.06 59.776C266.457 59.0847 267.001 58.5464 267.692 58.161C268.384 57.7757 269.16 57.583 270.021 57.583C270.883 57.583 271.659 57.7757 272.35 58.161C273.042 58.5464 273.58 59.0847 273.965 59.776C274.362 60.4674 274.56 61.2494 274.56 62.122C274.56 62.9947 274.362 63.7767 273.965 64.468C273.58 65.1594 273.042 65.7034 272.35 66.1C271.659 66.4854 270.883 66.678 270.021 66.678ZM270.021 65.607C270.656 65.607 271.223 65.4654 271.721 65.182C272.231 64.8874 272.628 64.4737 272.911 63.941C273.195 63.4084 273.336 62.802 273.336 62.122C273.336 61.442 273.195 60.8357 272.911 60.303C272.628 59.7704 272.231 59.3624 271.721 59.079C271.223 58.7844 270.656 58.637 270.021 58.637C269.387 58.637 268.814 58.7844 268.304 59.079C267.806 59.3624 267.409 59.7704 267.114 60.303C266.831 60.8357 266.689 61.442 266.689 62.122C266.689 62.802 266.831 63.4084 267.114 63.941C267.409 64.4737 267.806 64.8874 268.304 65.182C268.814 65.4654 269.387 65.607 270.021 65.607ZM281.58 57.583C282.702 57.583 283.592 57.9117 284.249 58.569C284.918 59.215 285.252 60.1614 285.252 61.408V66.593H284.045V61.527C284.045 60.5977 283.813 59.8894 283.348 59.402C282.884 58.9147 282.221 58.671 281.359 58.671C280.396 58.671 279.631 58.96 279.064 59.538C278.509 60.1047 278.231 60.8924 278.231 61.901V66.593H277.024V57.651H278.18V59.3C278.509 58.756 278.962 58.3367 279.54 58.042C280.13 57.736 280.81 57.583 281.58 57.583ZM290.926 66.678C290.201 66.678 289.504 66.576 288.835 66.372C288.178 66.1567 287.662 65.8904 287.288 65.573L287.832 64.621C288.206 64.9157 288.677 65.1594 289.243 65.352C289.81 65.5334 290.399 65.624 291.011 65.624C291.827 65.624 292.428 65.4994 292.813 65.25C293.21 64.9894 293.408 64.6267 293.408 64.162C293.408 63.8334 293.301 63.5784 293.085 63.397C292.87 63.2044 292.598 63.0627 292.269 62.972C291.941 62.87 291.504 62.7737 290.96 62.683C290.235 62.547 289.651 62.411 289.209 62.275C288.767 62.1277 288.388 61.884 288.07 61.544C287.764 61.204 287.611 60.7337 287.611 60.133C287.611 59.385 287.923 58.773 288.546 58.297C289.17 57.821 290.037 57.583 291.147 57.583C291.725 57.583 292.303 57.6624 292.881 57.821C293.459 57.9684 293.935 58.1667 294.309 58.416L293.782 59.385C293.046 58.875 292.167 58.62 291.147 58.62C290.377 58.62 289.793 58.756 289.396 59.028C289.011 59.3 288.818 59.657 288.818 60.099C288.818 60.439 288.926 60.711 289.141 60.915C289.368 61.119 289.646 61.272 289.974 61.374C290.303 61.4647 290.756 61.561 291.334 61.663C292.048 61.799 292.621 61.935 293.051 62.071C293.482 62.207 293.85 62.4394 294.156 62.768C294.462 63.0967 294.615 63.55 294.615 64.128C294.615 64.91 294.287 65.5334 293.629 65.998C292.983 66.4514 292.082 66.678 290.926 66.678Z" fill="white"/>
</svg>
