<svg width="98" height="98" viewBox="0 0 98 98" fill="none" xmlns="http://www.w3.org/2000/svg">
<mask id="mask0_3973_1154" style="mask-type:luminance" maskUnits="userSpaceOnUse" x="0" y="0" width="98" height="98">
<path d="M0 0H97.5337V97.5338H0V0Z" fill="white"/>
</mask>
<g mask="url(#mask0_3973_1154)">
<mask id="mask1_3973_1154" style="mask-type:luminance" maskUnits="userSpaceOnUse" x="-14" y="-15" width="127" height="126">
<path d="M25.8117 -14.7087L112.235 25.5947L72.4831 110.828L-13.9338 70.5312L25.8117 -14.7087Z" fill="white"/>
</mask>
<g mask="url(#mask1_3973_1154)">
<mask id="mask2_3973_1154" style="mask-type:luminance" maskUnits="userSpaceOnUse" x="-14" y="-15" width="127" height="126">
<path d="M25.8117 -14.7087L112.235 25.5947L72.4831 110.828L-13.9338 70.5312L25.8117 -14.7087Z" fill="white"/>
</mask>
<g mask="url(#mask2_3973_1154)">
<mask id="mask3_3973_1154" style="mask-type:luminance" maskUnits="userSpaceOnUse" x="-14" y="-15" width="127" height="126">
<path d="M25.8809 -14.6743L112.414 25.6767L72.8449 110.522L-13.6877 70.1711L25.8809 -14.6743Z" fill="white"/>
</mask>
<g mask="url(#mask3_3973_1154)">
<mask id="mask4_3973_1154" style="mask-type:luminance" maskUnits="userSpaceOnUse" x="-14" y="-15" width="127" height="126">
<path d="M25.8795 -14.6743L112.31 25.6291L72.7482 110.461L-13.6824 70.1575L25.8795 -14.6743Z" fill="white"/>
</mask>
<g mask="url(#mask4_3973_1154)">
<path fill-rule="evenodd" clip-rule="evenodd" d="M91.9819 69.1835C102.724 44.9157 91.9275 16.1236 67.8774 4.90482C46.8548 -4.8989 22.6551 1.93853 9.71498 19.9948C13.0146 16.3414 18.1376 12.0552 25.3016 9.73524C39.3371 5.17015 47.2154 7.64659 47.2154 7.64659C19.4575 8.98687 0.775293 34.1255 1.06784 54.4677C2.29246 64.0673 6.34729 73.2111 12.7289 80.6064C14.7291 82.2052 16.8722 83.3142 18.2397 80.2458L18.2533 80.2526C19.3214 74.4085 20.9406 63.0332 20.1038 60.9309C19.0016 58.196 14.1372 57.1278 13.3956 54.1003C12.6677 51.0524 19.1853 19.9948 19.1853 19.9948C19.1853 19.9948 20.0834 19.5934 20.5732 20.1104C21.0427 20.6615 16.6545 49.0114 17.1239 49.9162C17.5865 50.8211 17.6137 50.4333 18.0219 50.6442C18.3757 50.6986 18.8384 50.8483 19.4711 49.7257C20.1174 48.5827 22.8932 21.5051 23.0565 21.1105C23.2062 20.6955 23.6824 19.4301 24.5192 20.022C25.3628 20.5935 22.6347 48.8481 22.8796 49.6917C23.1449 50.5489 23.5259 50.5489 23.9409 50.6986C24.3219 50.6034 24.5668 50.6986 24.9206 49.9366C25.288 49.195 27.0161 20.8112 27.9209 20.3894C28.8326 19.9472 29.1183 21.2806 29.2068 21.7161C29.2884 22.1583 27.8189 49.3787 28.2747 50.5897C28.7101 51.7939 29.1591 51.7327 29.5061 51.7599C29.9824 51.6307 29.9688 51.9981 30.5879 51.202C31.1934 50.372 31.2546 21.6548 31.7989 21.199C32.3567 20.7704 33.2004 21.3419 33.2004 21.3419C33.2004 21.3419 34.7243 53.1274 33.5473 55.978C32.3704 58.8423 27.2066 59.2981 25.7302 61.8018C24.5668 63.7203 24.2539 76.8645 24.3695 83.7496C24.458 85.0763 24.7709 86.9744 25.8119 88.1242C27.5467 90.07 28.8258 89.6005 29.8667 87.4234L41.6094 62.9039C41.9087 62.0263 42.1469 61.1418 42.1333 60.4003C42.0992 59.6111 41.8611 58.8967 41.5754 58.3661C37.9424 54.9235 36.7381 49.2767 40.0514 41.7929C44.2695 32.3158 54.1549 23.4373 60.2576 26.2879C66.367 29.1318 66.3534 42.6161 62.1557 52.1001C59.0397 59.1688 54.461 62.0263 49.8279 61.8834C49.1884 62.0671 48.2767 62.4005 47.5488 62.972C47.0453 63.3802 46.4806 64.251 46.0248 65.1423L35.7789 89.5801L35.7993 89.5869C35.7993 89.5869 35.4523 92.3355 36.779 92.8662C37.4525 93.1315 38.2689 92.5192 38.9084 91.8593L38.888 91.8525C38.888 91.8525 39.1329 91.5667 39.5888 91.0701C39.8269 90.7571 39.9698 90.5394 39.9698 90.5394L40.0174 90.5802C45.7731 84.083 71.7213 54.7466 74.0345 51.7871C76.6538 48.4603 82.9605 41.0173 84.8179 43.6435C86.682 46.2628 82.6612 57.4952 75.6605 68.5576C68.6394 79.6199 62.6183 85.3076 58.407 86.9132C54.1889 88.4916 51.7873 84.981 48.7598 88.0017C46.712 90.0632 44.8002 92.5464 43.7661 93.9479C43.6232 94.499 43.4259 95.8325 44.5417 96.574C45.1132 96.9686 45.8887 97.1591 46.5963 97.2612C47.1882 97.2748 47.7937 97.3088 48.3924 97.302C66.6324 97.5333 84.0559 87.0901 91.9819 69.1835Z" fill="#FD484D"/>
</g>
</g>
</g>
</g>
</g>
</svg>
